<svg width="219" height="206" viewBox="0 0 219 206" fill="none" xmlns="http://www.w3.org/2000/svg">
<path fill-rule="evenodd" clip-rule="evenodd" d="M218.889 99.9993C219.39 106.296 218.146 113.904 216.089 121.317C214.42 127.331 211.885 133.062 208.801 138.558C205.17 145.027 200.593 150.71 195.565 156.096C190.402 161.629 184.356 166.058 178.152 170.305C163.507 180.327 147.314 186.508 129.904 189.533C124.4 190.49 118.833 191.067 113.228 191.36C108.713 191.596 104.207 191.607 99.6939 191.683C96.5893 191.736 93.5102 191.462 90.4548 191.005C89.4041 190.848 88.7305 191.076 88.0222 191.802C80.8829 199.124 72.0051 203.095 62.1242 205.04C59.839 205.488 57.511 205.831 55.156 205.747C54.6552 205.729 54.1307 205.797 53.6584 205.67C52.7805 205.433 51.836 205.19 51.5491 204.135C51.2607 203.065 51.8851 202.441 52.6727 201.851C55.6837 199.601 58.6108 197.257 60.9832 194.29C62.812 192.004 64.495 189.622 65.9276 187.072C66.7596 185.59 66.674 185.519 65.1907 184.959C53.9437 180.733 43.3908 175.193 33.9679 167.722C28.7953 163.621 24.2423 158.808 20.0411 153.686C16.9112 149.87 14.0365 145.859 11.5897 141.597C8.93362 136.975 6.52955 132.181 4.84654 127.089C1.57245 117.175 -0.0281509 106.969 0.000374575 96.5461C0.0193916 89.5843 1.10495 82.6907 2.97178 76.0157C5.20945 68.0222 8.8306 60.5691 13.7116 53.8197C17.496 48.5868 22.1916 44.1511 26.7937 39.6552C33.2801 33.3209 40.6223 28.0976 48.3162 23.3481C53.679 20.0376 59.5664 17.8585 65.3507 15.4576C71.5804 12.8713 78.1286 11.7541 84.7782 10.8302C96.1567 9.25016 107.561 8.72244 119.031 8.8619C124.574 8.92846 130.024 9.6099 135.466 10.4974C141.641 11.5037 147.873 12.1851 153.916 13.9236C161.724 16.1692 169.393 18.811 176.516 22.7443C184.172 26.9724 190.714 32.668 196.879 38.839C203.222 45.1891 208.141 52.5043 211.723 60.6737C214.439 66.8685 216.344 73.3248 217.447 80.0631C218.45 86.1993 218.788 92.337 218.889 99.9993Z" fill="#2368E7"/>
<path fill-rule="evenodd" clip-rule="evenodd" d="M199.719 33.6617C194.601 29.6015 189.59 26.1642 184.494 22.8394C173.912 15.9362 162.537 10.9015 150.238 7.94276C143.501 6.32156 136.761 4.6861 129.85 4.06012C121.532 3.30578 113.201 2.64177 104.832 2.87948C104.012 2.90325 103.191 2.88107 102.336 2.88107C102.488 2.09028 103.065 2.07126 103.519 1.98885C109.193 0.952426 114.922 0.00791422 120.67 0.134694C127.243 0.278907 133.856 0.0855666 140.386 1.44211C149.388 3.3137 158.325 5.40557 166.816 8.99028C177.429 13.4672 187.239 19.2848 195.72 27.1769C198.104 29.3939 198.776 30.4573 199.719 33.6617Z" fill="#2368E7"/>
<path fill-rule="evenodd" clip-rule="evenodd" d="M2.98922 138.701C4.22691 140.563 5.59296 142.352 6.68169 144.298C11.9605 153.738 19.1156 161.619 27.0204 168.863C32.6351 174.009 39.0011 178.142 45.5081 182.059C48.508 183.866 51.5159 185.663 54.5079 187.481C54.8391 187.682 55.2812 187.84 55.2892 188.503C54.2702 188.958 53.286 188.634 52.2797 188.302C46.7141 186.462 41.4701 183.959 36.4195 180.977C29.7414 177.034 23.9713 172.071 18.8859 166.247C13.9272 160.565 9.68954 154.42 6.46775 147.594C5.12546 144.751 3.83706 141.884 2.5233 139.03C2.67702 138.919 2.83233 138.81 2.98922 138.701Z" fill="#2368E7"/>
<path fill-rule="evenodd" clip-rule="evenodd" d="M23.9856 179.085C28.575 181.921 32.4434 185.029 36.7476 187.397C36.643 187.866 36.3403 188.054 36.0043 188.004C31.987 187.397 26.2074 183.234 23.9856 179.085Z" fill="#2368E7"/>
<path fill-rule="evenodd" clip-rule="evenodd" d="M48.4224 109.151C47.2592 109.815 46.1356 110.498 44.974 111.108C43.1135 112.083 41.4606 112.124 40.7823 111.272C40.1009 110.414 40.5272 109.002 42.0169 107.278C43.394 105.684 45.0152 104.364 46.7806 103.231C47.5793 102.717 47.8345 102.142 47.714 101.155C47.2006 96.9281 46.8773 92.6794 46.329 88.4592C46.0279 86.136 45.9201 83.7985 45.7315 81.4736C45.2165 75.1489 44.9708 68.802 44.6475 62.4614C44.5366 60.2871 44.7252 58.1207 45.0009 55.9607C45.1436 54.8466 45.1784 53.7389 46.6744 53.6042C47.9486 53.4885 48.5207 53.9211 49.1514 55.5677C50.172 58.2396 50.6347 61.0462 51.0689 63.8496C52.5618 73.4976 54.0213 83.1519 55.4825 92.8046C55.7075 94.2895 55.9294 95.7807 56.0482 97.2752C56.1338 98.3385 56.4286 98.6697 57.6013 98.4764C60.1638 98.0533 62.7803 97.9931 65.3396 98.5129C71.6501 99.7965 74.6786 104.24 76.1128 110.074C76.9305 113.403 77.2506 116.823 77.5913 120.227C77.8607 122.921 77.1555 125.538 76.7023 128.165C76.4899 129.398 75.5644 129.965 74.4757 130.298C72.0542 131.037 69.7912 130.072 68.563 127.797C66.7865 124.509 65.8024 121.008 65.6835 117.26C65.5853 114.159 65.1352 111.11 64.1225 108.158C63.6027 106.641 62.8199 105.273 61.9245 103.952C61.0862 102.714 60.102 102.822 58.8707 103.292C57.6314 103.766 56.8961 104.33 57.1259 105.831C57.5537 108.635 57.8057 111.467 58.2083 114.275C58.8152 118.501 59.0719 122.745 59.1337 127.011C59.1623 128.929 59.1322 130.851 59.3984 132.769C59.5917 134.168 58.9848 134.766 57.5965 134.897C55.6964 135.078 54.2828 134.084 53.4952 131.94C52.2559 128.561 51.4525 125.054 50.6252 121.561C49.855 118.311 49.4715 114.988 49.0864 111.671C48.9882 110.852 49.0595 109.993 48.4224 109.151Z" fill="white"/>
<path fill-rule="evenodd" clip-rule="evenodd" d="M150.972 101.788C151.564 92.8869 153.959 84.7049 160.601 78.2771C163.718 75.2598 167.242 73.2551 171.802 73.6576C176.201 74.049 179.526 75.8525 181.562 79.995C184.516 86.0044 184.587 92.234 183.405 98.5968C182.809 101.804 181.947 104.963 180.502 107.906C178.343 112.299 175.478 116.175 170.591 117.646C160.342 120.729 152.315 115.573 150.986 104.548C150.878 103.639 150.972 102.708 150.972 101.788Z" fill="white"/>
<path fill-rule="evenodd" clip-rule="evenodd" d="M76.6421 98.5762C76.2744 93.7585 77.8449 89.5685 80.1016 85.5844C81.5992 82.9379 83.9224 81.2152 86.6847 80.0251C91.9508 77.7541 97.1646 77.5275 102.372 80.2517C107.771 83.0773 109.28 89.1216 108.637 93.9281C108.381 95.8346 106.938 96.6983 105.188 97.1119C100.642 98.1848 96.1044 99.2957 91.5467 100.319C87.6276 101.199 87.5848 101.188 89.1331 104.991C90.3074 107.877 91.7669 110.581 94.19 112.658C96.1377 114.329 96.5672 114.371 98.3611 112.603C100.266 110.726 102.088 108.766 104.006 106.902C105.279 105.665 106.679 104.662 108.641 104.826C110.694 104.999 111.573 105.885 111.278 107.885C110.744 111.525 109.057 114.543 105.971 116.604C100.879 120.005 95.2914 120.346 89.6434 118.516C81.8211 115.978 76.9749 109.235 76.6484 100.958C76.6136 100.124 76.6421 99.2877 76.6421 98.5762Z" fill="white"/>
<path fill-rule="evenodd" clip-rule="evenodd" d="M162.849 141.935C157.924 142.054 153.528 141.491 149.117 141.174C147.702 141.073 146.279 141.048 144.859 141.013C137.17 140.826 129.473 140.737 121.793 141.113C110.199 141.677 98.6764 142.978 87.2742 145.236C83.2663 146.03 79.2316 146.689 75.2095 147.407C73.4916 147.713 71.8767 147.516 70.479 146.361C69.0812 145.206 69.0733 144.127 70.5614 143.16C71.3221 142.666 72.1953 142.314 73.059 142.017C82.0017 138.952 91.1172 136.645 100.51 135.398C115.213 133.445 129.974 133.076 144.767 133.548C150.282 133.726 155.704 134.785 161.13 135.729C162.61 135.987 164.1 136.192 165.566 136.507C167.329 136.888 168.873 137.716 169.943 139.211C170.835 140.458 170.569 141.111 169.096 141.597C168.293 141.862 167.466 141.937 166.624 141.935C165.201 141.932 163.781 141.935 162.849 141.935Z" fill="white"/>
<path fill-rule="evenodd" clip-rule="evenodd" d="M145.048 71.2709C145.138 79.8064 144.56 88.3181 144.122 96.8346C143.989 99.424 143.967 102.02 143.946 104.614C143.912 108.89 143.251 113.102 142.733 117.329C142.53 118.986 142.379 120.652 142.097 122.294C141.767 124.205 141.05 124.752 139.061 124.842C137.224 124.927 136.091 124.233 135.582 122.622C135.332 121.828 135.173 121 135.023 120.178C133.899 113.996 133.23 107.774 133.525 101.478C134.002 91.2974 134.262 81.1075 135.812 71.0015C136.66 65.4723 137.206 59.9004 137.977 54.3585C138.216 52.6295 138.709 50.9307 139.148 49.2366C139.455 48.0528 140.21 47.4173 141.523 47.468C142.916 47.5235 143.273 48.3428 143.534 49.5488C144.923 55.9718 145.029 62.4851 145.048 69.0095C145.049 69.7654 145.048 70.5182 145.048 71.2709Z" fill="white"/>
<path fill-rule="evenodd" clip-rule="evenodd" d="M115.381 89.9489C115.175 83.1345 115.716 75.6196 116.007 68.1047C116.24 62.108 116.6 56.0907 117.868 50.1843C118.082 49.1891 118.229 48.1701 119.584 48.0861C120.92 48.0037 121.571 48.7485 121.917 49.9038C122.082 50.4648 122.259 51.0242 122.375 51.5963C122.709 53.2318 123.091 54.8625 123.315 56.5138C124.322 63.9637 125.056 71.4358 125.527 78.9428C125.868 84.3737 125.933 89.7999 125.944 95.2309C125.952 98.9138 125.59 102.562 125.007 106.204C124.253 110.912 124.156 115.682 123.934 120.438C123.887 121.452 124.292 122.672 122.739 123.088C121.378 123.45 120.072 123.14 119.121 122.032C118.323 121.103 118.069 119.948 117.885 118.798C117.369 115.585 116.998 112.346 116.397 109.15C115.248 103.026 115.229 96.852 115.381 89.9489Z" fill="white"/>
<path fill-rule="evenodd" clip-rule="evenodd" d="M174.014 90.4195C173.32 96.2086 171.917 103.368 167.718 109.658C165.78 112.558 165.234 112.535 163.667 109.448C161.372 104.933 160.916 100.099 161.193 95.0961C161.376 91.8014 162.553 88.979 164.304 86.2865C165.848 83.9125 167.169 81.3864 169.225 79.3785C170.711 77.9253 170.981 77.9412 171.895 79.7129C173.37 82.5766 174.158 85.6145 174.014 90.4195Z" fill="#2368E7"/>
<path fill-rule="evenodd" clip-rule="evenodd" d="M87.4263 96.9994C86.9588 92.971 87.6783 89.1169 89.4072 85.4307C90.1568 83.8333 91.5372 82.9316 93.0443 82.1566C94.2883 81.518 95.4404 81.6574 96.5814 82.3896C98.77 83.7937 99.8191 85.8903 100.247 88.3689C100.261 88.4513 100.26 88.5337 100.269 88.6177C100.781 93.3608 100.51 93.7348 95.9412 94.9091C93.2107 95.6112 90.4944 96.3718 87.7702 97.0977C87.7021 97.1167 87.6133 97.0549 87.4263 96.9994Z" fill="#2368E7"/>
</svg>
