<svg id="visual" viewBox="0 0 1024 1024" width="1024" height="1024 " xmlns="http://www.w3.org/2000/svg" xmlns:xlink="http://www.w3.org/1999/xlink" version="1.1">
  <g transform="translate(525.9215266992956 574.4201775866836)">
    <path d="M256.7 -308.1C338.6 -237.2 415 -161.9 408.3 -88.5C401.5 -15.1 311.6 56.5 250.2 127.3C188.8 198.1 156 268.2 98.4 303.6C40.8 338.9 -41.5 339.5 -117.4 315.2C-193.4 290.8 -263 241.4 -324.6 170.2C-386.2 99 -439.8 6 -436.4 -88C-433.1 -182.1 -372.7 -277.2 -290.5 -348C-208.3 -418.9 -104.1 -465.4 -8.4 -455.5C87.4 -445.5 174.8 -379 256.7 -308.1" fill="#2368E7"></path>
  </g>
</svg>
