<svg width="51" height="50" viewBox="0 0 51 50" fill="none" xmlns="http://www.w3.org/2000/svg">
<rect x="0.5" width="50" height="50" rx="25" fill="white"/>
<g clip-path="url(#clip0_709_102673)">
<path d="M25.752 22.6978V27.6016H32.5274C32.2299 29.1786 31.337 30.514 29.998 31.4119L34.0839 34.6005C36.4644 32.3904 37.8378 29.1442 37.8378 25.2879C37.8378 24.3901 37.7577 23.5267 37.6089 22.6979L25.752 22.6978Z" fill="#4285F4"/>
<path d="M18.6963 27.4102L17.7748 28.1197L14.5129 30.6751C16.5845 34.8076 20.8303 37.6625 25.7516 37.6625C29.1507 37.6625 32.0004 36.5344 34.0835 34.6005L29.9976 31.4119C28.876 32.1716 27.4454 32.6321 25.7516 32.6321C22.4783 32.6321 19.6973 30.4104 18.7015 27.4175L18.6963 27.4102Z" fill="#34A853"/>
<path d="M14.513 19.325C13.6547 21.0286 13.1626 22.951 13.1626 25C13.1626 27.049 13.6547 28.9714 14.513 30.675C14.513 30.6864 18.702 27.4058 18.702 27.4058C18.4502 26.646 18.3013 25.8403 18.3013 24.9999C18.3013 24.1594 18.4502 23.3537 18.702 22.594L14.513 19.325Z" fill="#FBBC05"/>
<path d="M25.7518 17.3796C27.606 17.3796 29.254 18.0242 30.5702 19.2674L34.1753 15.6414C31.9893 13.5925 29.1511 12.3377 25.7518 12.3377C20.8305 12.3377 16.5845 15.1809 14.5129 19.325L18.7018 22.5942C19.6974 19.6013 22.4786 17.3796 25.7518 17.3796Z" fill="#EA4335"/>
</g>
<rect x="1" y="0.5" width="49" height="49" rx="24.5" stroke="black" stroke-opacity="0.05"/>
<defs>
<clipPath id="clip0_709_102673">
<rect width="24.6753" height="25.3247" fill="white" transform="translate(13.1624 12.3377)"/>
</clipPath>
</defs>
</svg>
