<svg width="51" height="50" viewBox="0 0 51 50" fill="none" xmlns="http://www.w3.org/2000/svg">
<rect x="0.5" width="50" height="50" rx="25" fill="black"/>
<g clip-path="url(#clip0_709_102683)">
<path d="M34.6679 20.1296C34.5216 20.2421 31.9383 21.6846 31.9383 24.8921C31.9383 28.6021 35.2255 29.9146 35.3239 29.9471C35.3087 30.0271 34.8017 31.7446 33.5907 33.4946C32.5109 35.0346 31.3832 36.5721 29.6677 36.5721C27.9522 36.5721 27.5107 35.5846 25.5303 35.5846C23.6004 35.5846 22.9142 36.6046 21.345 36.6046C19.7758 36.6046 18.6809 35.1796 17.422 33.4296C15.9638 31.3746 14.7856 28.1821 14.7856 25.1521C14.7856 20.2921 17.9745 17.7146 21.1129 17.7146C22.7804 17.7146 24.1705 18.7996 25.2175 18.7996C26.214 18.7996 27.7681 17.6496 29.6652 17.6496C30.3842 17.6496 32.9676 17.7146 34.6679 20.1296ZM28.7646 15.5921C29.5492 14.6696 30.1042 13.3896 30.1042 12.1096C30.1042 11.9321 30.089 11.7521 30.0562 11.6071C28.7797 11.6546 27.261 12.4496 26.3452 13.5021C25.6262 14.3121 24.9551 15.5921 24.9551 16.8896C24.9551 17.0846 24.9879 17.2796 25.003 17.3421C25.0838 17.3571 25.215 17.3746 25.3461 17.3746C26.4915 17.3746 27.932 16.6146 28.7646 15.5921Z" fill="white"/>
</g>
<defs>
<clipPath id="clip0_709_102683">
<rect width="20.5357" height="25" fill="white" transform="translate(14.7856 11.6071)"/>
</clipPath>
</defs>
</svg>
