<?xml version="1.0" encoding="UTF-8"?>
<svg xmlns="http://www.w3.org/2000/svg" id="Layer_1" data-name="Layer 1" viewBox="0 0 24 24">
  <path d="M19.5,2h-7.028c-.231,0-.464-.055-.671-.158L8.646,.264c-.345-.172-.732-.264-1.118-.264h-3.028C2.019,0,0,2.019,0,4.5v13c0,2.481,2.019,4.5,4.5,4.5h5c.276,0,.5-.224,.5-.5s-.224-.5-.5-.5H4.5c-1.93,0-3.5-1.57-3.5-3.5V7H23v3.5c0,.276,.224,.5,.5,.5s.5-.224,.5-.5V6.5c0-2.481-2.019-4.5-4.5-4.5ZM1,4.5c0-1.93,1.57-3.5,3.5-3.5h3.028c.231,0,.464,.055,.671,.158l3.156,1.578c.345,.172,.732,.264,1.118,.264h7.028c1.758,0,3.204,1.308,3.449,3H1v-1.5Zm16.5,6.5c-3.584,0-6.5,2.916-6.5,6.5s2.916,6.5,6.5,6.5,6.5-2.916,6.5-6.5-2.916-6.5-6.5-6.5Zm0,12c-3.032,0-5.5-2.467-5.5-5.5s2.468-5.5,5.5-5.5,5.5,2.467,5.5,5.5-2.468,5.5-5.5,5.5Zm2.854-7.646l-2.146,2.146,2.146,2.146c.195,.195,.195,.512,0,.707-.098,.098-.226,.146-.354,.146s-.256-.049-.354-.146l-2.146-2.146-2.146,2.146c-.098,.098-.226,.146-.354,.146s-.256-.049-.354-.146c-.195-.195-.195-.512,0-.707l2.146-2.146-2.146-2.146c-.195-.195-.195-.512,0-.707s.512-.195,.707,0l2.146,2.146,2.146-2.146c.195-.195,.512-.195,.707,0s.195,.512,0,.707Z"/>
</svg>
